<?xml version="1.0" encoding="UTF-8" standalone="no"?>
<!-- Generator: Adobe Illustrator 19.1.0, SVG Export Plug-In . SVG Version: 6.00 Build 0)  -->

<svg
   xmlns:dc="http://purl.org/dc/elements/1.1/"
   xmlns:cc="http://creativecommons.org/ns#"
   xmlns:rdf="http://www.w3.org/1999/02/22-rdf-syntax-ns#"
   xmlns:svg="http://www.w3.org/2000/svg"
   xmlns="http://www.w3.org/2000/svg"
   xmlns:sodipodi="http://sodipodi.sourceforge.net/DTD/sodipodi-0.dtd"
   xmlns:inkscape="http://www.inkscape.org/namespaces/inkscape"
   version="1.1"
   id="Layer_1"
   x="0px"
   y="0px"
   width="23.5"
   height="22.6"
   viewBox="0 0 23.5 22.6"
   enable-background="new 0 0 23.5 22.6"
   xml:space="preserve"
   sodipodi:docname="academia-logo-redesign-2015-A.svg"
   inkscape:export-filename="/Users/houser/Desktop/academia-logo-redesign-2015-A.png"
   inkscape:export-xdpi="240"
   inkscape:export-ydpi="240"
   inkscape:version="0.92.2 5c3e80d, 2017-08-06"><metadata
     id="metadata9"><rdf:RDF><cc:Work
         rdf:about=""><dc:format>image/svg+xml</dc:format><dc:type
           rdf:resource="http://purl.org/dc/dcmitype/StillImage" /><dc:title></dc:title></cc:Work></rdf:RDF></metadata><defs
     id="defs7" /><sodipodi:namedview
     pagecolor="#ffffff"
     bordercolor="#666666"
     borderopacity="1"
     objecttolerance="10"
     gridtolerance="10"
     guidetolerance="10"
     inkscape:pageopacity="0"
     inkscape:pageshadow="2"
     inkscape:window-width="1126"
     inkscape:window-height="662"
     id="namedview5"
     showgrid="false"
     fit-margin-top="0"
     fit-margin-left="0"
     fit-margin-right="0"
     fit-margin-bottom="0"
     inkscape:zoom="10.442478"
     inkscape:cx="11.75"
     inkscape:cy="11.3"
     inkscape:window-x="150"
     inkscape:window-y="46"
     inkscape:window-maximized="0"
     inkscape:current-layer="Layer_1" /><path
     d="m 6.7,22.6 v -1.2 0 0 0 c 0,0 0,0 0,0 C 4.9,21.2 3.8,21 4.6,19 4.7,18.8 5.2,17.5 5.9,15.7 h 8.2 l 1.2,3 c 0.2,0.5 0.3,0.9 0.3,1.2 0,1 -0.9,1.4 -2.6,1.4 v 1.2 H 23.5 V 21.3 C 22.6,21.1 21.9,20.9 21.6,20.1 L 13.5,0 H 7.7 l 1,2.5 -6.8,17.7 c -0.3,0.9 -1,1 -1.9,1.2 v 1.2 z M 9.9,5.2 13.2,13.5 H 6.7 C 7.9,10.3 9.4,6.6 9.9,5.2 Z"
     id="path2"
     inkscape:connector-curvature="0" /></svg>